<svg width="200px" height="200px" id="Layer_1" data-name="Layer 1" xmlns="http://www.w3.org/2000/svg" viewBox="0 0 1366 768"><defs><style>.cls-1,.cls-2{fill:#fff;}.cls-1,.cls-6{stroke:#603813;stroke-width:13px;}.cls-1{stroke-linejoin:round;}.cls-3,.cls-4{fill:aqua;}.cls-3{opacity:0.1;}.cls-4{opacity:0.45;}.cls-5{font-size:544.94px;fill:#ff0556;font-family:MyriadPro-Regular, Myriad Pro;}.cls-6{fill:none;stroke-miterlimit:10;}</style></defs><rect class="cls-1" x="827.57" y="437.81" width="95.3" height="346.34" rx="14.9" transform="translate(-175.68 797.83) rotate(-45)"/><circle class="cls-2" cx="562.02" cy="294.55" r="286.44"/><circle class="cls-3" cx="562.02" cy="294.55" r="286.03"/><path class="cls-4" d="M777.21,483.6A285.68,285.68,0,0,1,562,581c-158.2,0-286.45-128.25-286.45-286.44A285.76,285.76,0,0,1,373,79.37a285.3,285.3,0,0,0-71.23,189.05c0,158.19,128.25,286.44,286.44,286.44A285.17,285.17,0,0,0,777.21,483.6Z"/><text class="cls-5" transform="translate(338.48 475.31)">%</text><circle class="cls-6" cx="562.02" cy="294.55" r="286.44"/></svg>
